<svg width="22" height="22" viewBox="0 0 22 22" fill="none" xmlns="http://www.w3.org/2000/svg">
<path fill-rule="evenodd" clip-rule="evenodd" d="M11.0002 20.1667C6.67895 20.1667 4.51835 20.1667 3.17592 18.8242C1.8335 17.4818 1.8335 15.3212 1.8335 11C1.8335 6.6788 1.8335 4.5182 3.17592 3.17577C4.51835 1.83334 6.67895 1.83334 11.0002 1.83334C15.3214 1.83334 17.482 1.83334 18.8244 3.17577C20.1668 4.5182 20.1668 6.6788 20.1668 11C20.1668 15.3212 20.1668 17.4818 18.8244 18.8242C17.482 20.1667 15.3214 20.1667 11.0002 20.1667ZM11.0002 7.56251C11.3799 7.56251 11.6877 7.87031 11.6877 8.25001V10.3125H13.7502C14.1299 10.3125 14.4377 10.6203 14.4377 11C14.4377 11.3797 14.1299 11.6875 13.7502 11.6875H11.6877L11.6877 13.75C11.6877 14.1297 11.3799 14.4375 11.0002 14.4375C10.6205 14.4375 10.3127 14.1297 10.3127 13.75V11.6875H8.25016C7.87047 11.6875 7.56266 11.3797 7.56266 11C7.56266 10.6203 7.87047 10.3125 8.25016 10.3125H10.3127L10.3127 8.25001C10.3127 7.87031 10.6205 7.56251 11.0002 7.56251Z" fill="#FF6F06"/>
</svg>
