<svg width="22" height="22" viewBox="0 0 22 22" fill="none" xmlns="http://www.w3.org/2000/svg">
<path fill-rule="evenodd" clip-rule="evenodd" d="M10.5418 2.52084C6.11205 2.52084 2.521 6.11189 2.521 10.5417C2.521 14.9715 6.11205 18.5625 10.5418 18.5625C14.9716 18.5625 18.5627 14.9715 18.5627 10.5417C18.5627 6.11189 14.9716 2.52084 10.5418 2.52084ZM1.146 10.5417C1.146 5.3525 5.35265 1.14584 10.5418 1.14584C15.731 1.14584 19.9377 5.3525 19.9377 10.5417C19.9377 12.8888 19.077 15.0349 17.6541 16.6817L20.653 19.6805C20.9214 19.949 20.9214 20.3843 20.653 20.6528C20.3845 20.9213 19.9492 20.9213 19.6807 20.6528L16.6819 17.654C15.0351 19.0769 12.889 19.9375 10.5418 19.9375C5.35265 19.9375 1.146 15.7309 1.146 10.5417Z" fill="white"/>
</svg>
