<svg width="22" height="22" viewBox="0 0 22 22" fill="none" xmlns="http://www.w3.org/2000/svg">
<path d="M11.0002 1.14584H10.9476C8.83154 1.14583 7.17326 1.14582 5.87939 1.31978C4.55505 1.49783 3.51003 1.86939 2.68979 2.68964C1.86955 3.50988 1.49798 4.5549 1.31993 5.87924C1.14598 7.1731 1.14598 8.83139 1.146 10.9474V11.0526C1.14598 13.1686 1.14598 14.8269 1.31993 16.1208C1.49798 17.4451 1.86955 18.4901 2.68979 19.3104C3.51003 20.1306 4.55505 20.5022 5.87939 20.6802C7.17326 20.8542 8.83154 20.8542 10.9476 20.8542H11.0528C13.1688 20.8542 14.8271 20.8542 16.1209 20.6802C17.4453 20.5022 18.4903 20.1306 19.3105 19.3104C20.1308 18.4901 20.5023 17.4451 20.6804 16.1208C20.8543 14.8269 20.8543 13.1686 20.8543 11.0526V11C20.8543 10.6203 20.5465 10.3125 20.1668 10.3125C19.7871 10.3125 19.4793 10.6203 19.4793 11C19.4793 13.18 19.4779 14.7459 19.3177 15.9376C19.1601 17.1094 18.8605 17.8159 18.3383 18.3381C17.8161 18.8603 17.1096 19.1599 15.9377 19.3175C14.7461 19.4777 13.1802 19.4792 11.0002 19.4792C8.82012 19.4792 7.25425 19.4777 6.06261 19.3175C4.89074 19.1599 4.18424 18.8603 3.66206 18.3381C3.13987 17.8159 2.84022 17.1094 2.68267 15.9376C2.52246 14.7459 2.521 13.18 2.521 11C2.521 8.81997 2.52246 7.2541 2.68267 6.06246C2.84022 4.89059 3.13987 4.18409 3.66206 3.66191C4.18424 3.13972 4.89074 2.84007 6.06261 2.68252C7.25425 2.5223 8.82012 2.52084 11.0002 2.52084C11.3799 2.52084 11.6877 2.21304 11.6877 1.83334C11.6877 1.45365 11.3799 1.14584 11.0002 1.14584Z" fill="white"/>
<path d="M19.7363 3.23615C20.0048 2.96766 20.0048 2.53236 19.7363 2.26387C19.4678 1.99539 19.0325 1.99539 18.764 2.26387L11.6877 9.34024V6.10157C11.6877 5.72188 11.3799 5.41407 11.0002 5.41407C10.6205 5.41407 10.3127 5.72188 10.3127 6.10157V11C10.3127 11.3797 10.6205 11.6875 11.0002 11.6875H15.8986C16.2783 11.6875 16.5861 11.3797 16.5861 11C16.5861 10.6203 16.2783 10.3125 15.8986 10.3125H12.6599L19.7363 3.23615Z" fill="white"/>
</svg>
