<svg width="22" height="22" viewBox="0 0 22 22" fill="none" xmlns="http://www.w3.org/2000/svg">
<path fill-rule="evenodd" clip-rule="evenodd" d="M11.0002 2.52083C6.31725 2.52083 2.521 6.31708 2.521 11C2.521 15.6829 6.31725 19.4792 11.0002 19.4792C15.6831 19.4792 19.4793 15.6829 19.4793 11C19.4793 6.31708 15.6831 2.52083 11.0002 2.52083ZM1.146 11C1.146 5.55769 5.55786 1.14583 11.0002 1.14583C16.4425 1.14583 20.8543 5.55769 20.8543 11C20.8543 16.4423 16.4425 20.8542 11.0002 20.8542C5.55786 20.8542 1.146 16.4423 1.146 11ZM11.0002 6.64583C11.3799 6.64583 11.6877 6.95363 11.6877 7.33333V10.7152L13.778 12.8055C14.0464 13.074 14.0464 13.5093 13.778 13.7778C13.5095 14.0463 13.0742 14.0463 12.8057 13.7778L10.514 11.4861C10.3851 11.3572 10.3127 11.1823 10.3127 11V7.33333C10.3127 6.95363 10.6205 6.64583 11.0002 6.64583Z" fill="white"/>
</svg>
