<svg width="22" height="22" viewBox="0 0 22 22" fill="none" xmlns="http://www.w3.org/2000/svg">
<path fill-rule="evenodd" clip-rule="evenodd" d="M10.0316 1.14583H11.9684C13.653 1.14581 14.9873 1.1458 16.0316 1.2862C17.1063 1.43069 17.9762 1.73514 18.6622 2.42113C19.3482 3.10713 19.6526 3.977 19.7971 5.05172C19.9375 6.096 19.9375 7.43034 19.9375 9.11495V12.885C19.9375 14.5697 19.9375 15.904 19.7971 16.9483C19.6526 18.023 19.3482 18.8929 18.6622 19.5789C17.9762 20.2649 17.1063 20.5693 16.0316 20.7138C14.9873 20.8542 13.653 20.8542 11.9684 20.8542H10.0316C8.34701 20.8542 7.01268 20.8542 5.9684 20.7138C4.89368 20.5693 4.02381 20.2649 3.33781 19.5789C2.65181 18.8929 2.34737 18.023 2.20287 16.9483C2.06247 15.904 2.06249 14.5697 2.0625 12.885V9.11495C2.06249 7.43033 2.06247 6.096 2.20287 5.05172C2.34737 3.977 2.65181 3.10713 3.33781 2.42113C4.02381 1.73514 4.89368 1.43069 5.9684 1.2862C7.01268 1.1458 8.34701 1.14581 10.0316 1.14583ZM6.15161 2.64894C5.22936 2.77293 4.69802 3.00546 4.31008 3.39341C3.92214 3.78135 3.68961 4.31269 3.56561 5.23494C3.43896 6.17696 3.4375 7.41874 3.4375 9.16666V12.8333C3.4375 14.5812 3.43896 15.823 3.56561 16.765C3.68961 17.6873 3.92214 18.2186 4.31008 18.6066C4.69802 18.9945 5.22936 19.2271 6.15161 19.351C7.09364 19.4777 8.33541 19.4792 10.0833 19.4792H11.9167C13.6646 19.4792 14.9064 19.4777 15.8484 19.351C16.7706 19.2271 17.302 18.9945 17.6899 18.6066C18.0779 18.2186 18.3104 17.6873 18.4344 16.765C18.561 15.823 18.5625 14.5812 18.5625 12.8333V9.16666C18.5625 7.41874 18.561 6.17697 18.4344 5.23494C18.3104 4.31269 18.0779 3.78135 17.6899 3.39341C17.302 3.00546 16.7706 2.77293 15.8484 2.64894C14.9064 2.52229 13.6646 2.52083 11.9167 2.52083H10.0833C8.33542 2.52083 7.09364 2.52229 6.15161 2.64894ZM6.64583 7.33333C6.64583 6.95363 6.95364 6.64583 7.33333 6.64583H14.6667C15.0464 6.64583 15.3542 6.95363 15.3542 7.33333C15.3542 7.71302 15.0464 8.02083 14.6667 8.02083H7.33333C6.95364 8.02083 6.64583 7.71302 6.64583 7.33333ZM6.64583 11C6.64583 10.6203 6.95364 10.3125 7.33333 10.3125H14.6667C15.0464 10.3125 15.3542 10.6203 15.3542 11C15.3542 11.3797 15.0464 11.6875 14.6667 11.6875H7.33333C6.95364 11.6875 6.64583 11.3797 6.64583 11ZM6.64583 14.6667C6.64583 14.287 6.95364 13.9792 7.33333 13.9792H11.9167C12.2964 13.9792 12.6042 14.287 12.6042 14.6667C12.6042 15.0464 12.2964 15.3542 11.9167 15.3542H7.33333C6.95364 15.3542 6.64583 15.0464 6.64583 14.6667Z" fill="white"/>
</svg>
