<svg width="22" height="22" viewBox="0 0 22 22" fill="none" xmlns="http://www.w3.org/2000/svg">
<path fill-rule="evenodd" clip-rule="evenodd" d="M11 1.14584C7.07643 1.14584 3.89579 4.32649 3.89579 8.25001V8.89544C3.89579 9.53428 3.70669 10.1588 3.35232 10.6904L2.29944 12.2697C1.07743 14.1027 2.01033 16.5942 4.13571 17.1739C4.82835 17.3628 5.52684 17.5226 6.22938 17.6533L6.23112 17.6579C6.93603 19.5388 8.82007 20.8542 10.9999 20.8542C13.1797 20.8542 15.0638 19.5388 15.7687 17.6579L15.7704 17.6533C16.473 17.5226 17.1715 17.3628 17.8642 17.1739C19.9896 16.5942 20.9225 14.1027 19.7005 12.2697L18.6476 10.6904C18.2932 10.1588 18.1041 9.53428 18.1041 8.89544V8.25001C18.1041 4.32649 14.9235 1.14584 11 1.14584ZM14.095 17.9089C12.039 18.1545 9.96082 18.1545 7.90478 17.9089C8.55649 18.8453 9.69001 19.4792 10.9999 19.4792C12.3098 19.4792 13.4433 18.8453 14.095 17.9089ZM5.27079 8.25001C5.27079 5.08588 7.83582 2.52084 11 2.52084C14.1641 2.52084 16.7291 5.08588 16.7291 8.25001V8.89544C16.7291 9.80574 16.9986 10.6957 17.5035 11.4531L18.5564 13.0324C19.2578 14.0845 18.7223 15.5146 17.5024 15.8473C13.2452 17.0084 8.75472 17.0084 4.49749 15.8473C3.27756 15.5146 2.7421 14.0845 3.44351 13.0324L4.49639 11.4531C5.00134 10.6957 5.27079 9.80574 5.27079 8.89544V8.25001Z" fill="white"/>
</svg>
