<svg width="22" height="22" viewBox="0 0 22 22" fill="none" xmlns="http://www.w3.org/2000/svg">
<path d="M14.6946 9.19447C14.9631 8.92599 14.9631 8.49068 14.6946 8.2222C14.4261 7.95371 13.9908 7.95371 13.7224 8.2222L9.62516 12.3194L8.27797 10.9722C8.00948 10.7037 7.57418 10.7037 7.30569 10.9722C7.03721 11.2407 7.03721 11.676 7.30569 11.9445L9.13903 13.7778C9.40751 14.0463 9.84281 14.0463 10.1113 13.7778L14.6946 9.19447Z" fill="white"/>
<path fill-rule="evenodd" clip-rule="evenodd" d="M11.0002 1.14584C5.55786 1.14584 1.146 5.5577 1.146 11C1.146 16.4423 5.55786 20.8542 11.0002 20.8542C16.4425 20.8542 20.8543 16.4423 20.8543 11C20.8543 5.5577 16.4425 1.14584 11.0002 1.14584ZM2.521 11C2.521 6.31709 6.31725 2.52084 11.0002 2.52084C15.6831 2.52084 19.4793 6.31709 19.4793 11C19.4793 15.6829 15.6831 19.4792 11.0002 19.4792C6.31725 19.4792 2.521 15.6829 2.521 11Z" fill="white"/>
</svg>
