<svg width="15" height="15" viewBox="0 0 15 15" fill="none" xmlns="http://www.w3.org/2000/svg">
<path d="M0.150825 8.99693C0.446799 10.4511 1.16718 11.7846 2.22081 12.8289C3.27444 13.8731 4.61394 14.5811 6.0698 14.8632C7.52565 15.1453 9.03241 14.9889 10.3994 14.4137C11.7664 13.8385 12.9321 12.8704 13.7491 11.632C14.5661 10.3935 14.9975 8.94034 14.9889 7.45638C14.9803 5.97242 14.532 4.52437 13.7006 3.2955C12.8693 2.06663 11.6924 1.11218 10.3188 0.55294C8.94526 -0.00630049 7.43679 -0.145181 5.98431 0.153858C4.03991 0.554174 2.33365 1.71012 1.23998 3.36802C0.146322 5.02593 -0.245389 7.05033 0.150825 8.99693Z" fill="#D28A7B"/>
</svg>
