<svg width="6" height="11" viewBox="0 0 6 11" fill="none" xmlns="http://www.w3.org/2000/svg">
<path d="M6.00016 0.046342V10.0564C5.76243 10.0766 5.52342 10.0766 5.28569 10.0564C4.60461 10.0914 3.92353 9.98742 3.28389 9.75069C2.64425 9.51397 2.05943 9.14949 1.56498 8.67944C1.07054 8.20939 0.676822 7.64359 0.407781 7.01647C0.13874 6.38934 0 5.71401 0 5.03153C0 4.34905 0.13874 3.67372 0.407781 3.04659C0.676822 2.41947 1.07054 1.85365 1.56498 1.3836C2.05943 0.913555 2.64425 0.549091 3.28389 0.312368C3.92353 0.0756438 4.60461 -0.0283779 5.28569 0.00662095C5.52454 -0.000402195 5.76355 0.0128848 6.00016 0.046342Z" fill="#CB705D"/>
</svg>
