<svg width="35" height="34" viewBox="0 0 35 34" fill="none" xmlns="http://www.w3.org/2000/svg">
<path d="M13.4011 34C10.8823 33.4187 8.52354 32.2862 6.49426 30.6839L7.14633 29.8715C9.04791 31.3965 11.2672 32.4751 13.6406 33.0278L13.4011 34ZM21.0531 34L20.8136 32.9745C23.179 32.4365 25.3908 31.3661 27.2812 29.8449L27.9333 30.6706C25.9144 32.2763 23.5645 33.4135 21.0531 34ZM1.71673 24.6776C0.590547 22.3528 0.00369151 19.8034 0 17.2198H1.05133C1.04957 19.6469 1.60024 22.0425 2.66158 24.2248L1.71673 24.6776ZM32.7108 24.6776L31.7659 24.2248C32.8246 22.0374 33.3708 19.637 33.3629 17.2064H34.1081H34.4009C34.4061 19.7923 33.8284 22.3461 32.7108 24.6776ZM2.62166 10.228L1.69009 9.77521C2.80739 7.44805 4.43066 5.40042 6.44101 3.78227L7.09309 4.59465C5.20888 6.12261 3.68255 8.04558 2.62166 10.228ZM31.7393 10.1348C30.6727 7.95605 29.1364 6.04116 27.2413 4.52805L27.8801 3.71568C29.9041 5.32297 31.5451 7.36104 32.6842 9.68199L31.7393 10.1348ZM13.5607 1.45168L13.3345 0.439538C14.6 0.146611 15.8949 -0.000839365 17.1938 5.33086e-05C18.465 -0.00311961 19.7327 0.135356 20.9733 0.412907L20.7337 1.42504C19.5711 1.1688 18.3843 1.03932 17.1938 1.03884C15.9713 1.04233 14.7529 1.18078 13.5607 1.45168Z" fill="#585858"/>
</svg>
