<svg width="66" height="66" viewBox="0 0 66 66" fill="none" xmlns="http://www.w3.org/2000/svg">
<path d="M32.9358 66H32.6287V64.9445H32.9224C35.2253 64.9489 37.5217 64.7025 39.7713 64.2097L39.9982 65.2385C37.6772 65.7392 35.3101 65.9945 32.9358 66ZM25.2592 65.0915C22.8475 64.5188 20.5093 63.6715 18.2902 62.5664L18.7575 61.6312C20.9095 62.6899 23.1762 63.4969 25.5129 64.036L25.2592 65.0915ZM47.034 62.8336L46.58 61.885C48.751 60.8559 50.7979 59.5829 52.6812 58.0907L53.3354 58.919C51.3831 60.4376 49.2699 61.7369 47.034 62.7935V62.8336ZM12.0555 58.5316C10.1339 56.9504 8.39626 55.1578 6.87553 53.1875L7.70326 52.5461C9.17854 54.4476 10.8623 56.1775 12.7231 57.7032L12.0555 58.5316ZM58.6089 53.6818L57.7945 53.0271C59.302 51.1578 60.592 49.1229 61.6395 46.9615L62.5873 47.4158C61.4987 49.6338 60.1642 51.7223 58.6089 53.6417V53.6818ZM3.03057 46.868C1.98779 44.6125 1.204 42.246 0.694229 39.8138L1.70887 39.6C2.2025 41.9549 2.96399 44.2456 3.97846 46.4271L3.03057 46.868ZM65.0438 40.4016L64.0292 40.1745C64.5642 37.8297 64.833 35.4319 64.8302 33.0267H65.8716C65.869 35.4949 65.5913 37.955 65.0438 40.3615V40.4016ZM1.04134 32.3854H0C0.0377207 29.9028 0.360249 27.4328 0.961241 25.0239L1.97588 25.2777C1.39686 27.6085 1.08335 29.9974 1.04134 32.3988V32.3854ZM64.2295 26.9878C63.7797 24.6295 63.0631 22.3301 62.0934 20.134L63.0546 19.7065C64.0547 21.9803 64.7937 24.3603 65.2574 26.8008L64.2295 26.9878ZM4.44573 18.5308L3.51119 18.0631C4.63994 15.849 6.01485 13.7694 7.60981 11.864L8.41084 12.532C6.88185 14.378 5.56522 16.3902 4.48578 18.5308H4.44573ZM58.5154 13.8947C57.0615 11.9721 55.3955 10.2197 53.549 8.67084L54.2299 7.88258C56.1187 9.4898 57.8205 11.3049 59.3031 13.2935L58.5154 13.8947ZM13.6443 7.5352L13.0168 6.70687C14.9915 5.20477 17.1275 3.92765 19.385 2.89917L19.8122 3.86111C17.624 4.85918 15.5549 6.10062 13.6443 7.56195V7.5352ZM47.6347 4.62266C45.5139 3.5174 43.2744 2.65685 40.9595 2.0575L41.2131 1.0421C43.622 1.66315 45.9515 2.55975 48.1554 3.71417L47.6347 4.62266ZM26.661 1.65667L26.4474 0.627937C28.5807 0.21137 30.749 0.00108802 32.9224 0H33.8436V1.0421C33.5499 1.0421 33.2295 1.0421 32.9491 1.0421C30.8373 1.05181 28.7314 1.26655 26.661 1.68337V1.65667Z" fill="#585858"/>
</svg>
