<svg width="31" height="67" viewBox="0 0 31 67" fill="none" xmlns="http://www.w3.org/2000/svg">
<path d="M7.20968 66.8296C4.74757 66.1992 2.63638 64.6161 1.34028 62.4284C0.0441762 60.2408 -0.330737 57.6276 0.297964 55.1633L11.8754 7.2275C12.1859 6.00627 12.7337 4.85823 13.4877 3.84896C14.2416 2.83968 15.1869 1.98894 16.2695 1.34537C17.3521 0.701801 18.5508 0.278012 19.7971 0.0981843C21.0434 -0.0816434 22.3129 -0.0139858 23.5331 0.297325C24.7534 0.608007 25.9006 1.15626 26.9092 1.91077C27.9177 2.66527 28.7678 3.61125 29.4109 4.69464C30.054 5.77803 30.4775 6.97759 30.6572 8.22482C30.8369 9.47204 30.7693 10.7425 30.4582 11.9635L18.9208 58.1066C18.4686 59.953 17.586 61.6659 16.3451 63.1053C15.1043 64.5447 13.5406 65.6696 11.7818 66.3881C10.3405 67.0066 8.74258 67.161 7.20968 66.8296Z" fill="#D28A7B"/>
</svg>
