<svg width="37" height="36" viewBox="0 0 37 36" fill="none" xmlns="http://www.w3.org/2000/svg">
<path d="M16.6134 36C14.112 35.8202 11.6758 35.1191 9.46112 33.9417L9.95213 33.0122C12.0378 34.1279 14.3343 34.7929 16.693 34.9642L16.6134 36ZM23.978 35.0439L23.6462 34.0612C25.8723 33.2762 27.9137 32.0423 29.6441 30.436L30.3473 31.1929C28.5034 32.9108 26.32 34.2227 23.9382 35.0439H23.978ZM3.74197 29.1745C2.18084 27.2163 1.04227 24.9555 0.398069 22.5348L1.40656 22.2693C2.01348 24.5551 3.08899 26.6896 4.56471 28.5371L3.74197 29.1745ZM34.6599 25.1907L33.7045 24.7658C34.6573 22.603 35.1456 20.264 35.1376 17.9004H36.1726C36.16 20.3942 35.6314 22.8584 34.6201 25.1376L34.6599 25.1907ZM35.0315 16.028C34.7798 13.6884 34.0431 11.427 32.8685 9.38842L33.7709 8.87055C35.0187 11.0448 35.8006 13.4552 36.0665 15.9484L35.0315 16.028ZM1.02174 15.3109L0 15.1649C0.383743 12.6757 1.28808 10.2955 2.6539 8.18001L3.52969 8.73775C2.23824 10.711 1.37063 12.9313 0.98193 15.2579L1.02174 15.3109ZM28.2109 4.11657C26.3121 2.70755 24.1441 1.70413 21.8416 1.16858L22.0804 0.159344C24.5179 0.72459 26.8127 1.78694 28.8214 3.27997L28.2109 4.11657ZM8.30668 3.70491L7.72282 2.84177C9.79745 1.42826 12.1424 0.460622 14.6097 0L14.7955 1.02253C12.4735 1.44594 10.2643 2.34565 8.30668 3.66508V3.70491Z" fill="#585858"/>
</svg>
