<svg width="28" height="28" viewBox="0 0 28 28" fill="none" xmlns="http://www.w3.org/2000/svg">
<path d="M14.0224 28C13.4075 28.0007 12.7933 27.9609 12.1836 27.8808L12.3159 26.8482C14.6343 27.149 16.9908 26.8245 19.1419 25.9083L19.552 26.8615C17.8057 27.6147 15.9239 28.0022 14.0224 28ZM5.29147 24.9684C3.311 23.3996 1.79307 21.3224 0.89954 18.9582L1.86525 18.6007C2.6968 20.7883 4.10478 22.7096 5.93968 24.1608L5.29147 24.9684ZM25.3065 22.2016L24.473 21.5926C25.8491 19.6991 26.6817 17.4651 26.8807 15.1323L27.9125 15.225C27.7046 17.7402 26.8175 20.1517 25.3461 22.2016H25.3065ZM1.01861 13.9938H0C0.00112013 11.4683 0.682002 8.98975 1.97108 6.8186L2.87062 7.34812C1.67482 9.35761 1.04831 11.655 1.0583 13.9938H1.01861ZM25.6769 8.4072C24.6808 6.2654 23.1215 4.43498 21.1659 3.11185L21.7347 2.25135C23.8444 3.64195 25.54 5.57659 26.6425 7.85119L25.6769 8.4072ZM7.9372 2.58231L7.44775 1.66887C9.67066 0.47264 12.1757 -0.099177 14.6971 0.0140764V1.04667C12.3474 0.948155 10.014 1.47823 7.9372 2.58231Z" fill="#585858"/>
</svg>
