<svg width="22" height="22" viewBox="0 0 22 22" fill="none" xmlns="http://www.w3.org/2000/svg">
<path d="M21.5861 20.4127L12.1736 11.0066L21.5861 1.58727C21.7489 1.40511 21.8389 1.16928 21.8389 0.924872C21.8389 0.680468 21.7489 0.444638 21.5861 0.26247C21.4069 0.0938697 21.1701 0 20.9242 0C20.6782 0 20.4415 0.0938697 20.2622 0.26247L10.8498 9.68181L1.43732 0.26247C1.2522 0.164581 1.04061 0.128623 0.833578 0.159859C0.626548 0.191095 0.43497 0.28788 0.286923 0.436035C0.138876 0.584191 0.0421626 0.775909 0.0109494 0.983091C-0.0202637 1.19027 0.0156674 1.40202 0.113485 1.58727L9.52592 11.0066L0.113485 20.4127C0.0156674 20.598 -0.0202637 20.8097 0.0109494 21.0169C0.0421626 21.2241 0.138876 21.4158 0.286923 21.564C0.43497 21.7121 0.626548 21.8089 0.833578 21.8401C1.04061 21.8714 1.2522 21.8354 1.43732 21.7375L10.8498 12.3314L20.2622 21.7375C20.4415 21.9061 20.6782 22 20.9242 22C21.1701 22 21.4069 21.9061 21.5861 21.7375C21.7517 21.5567 21.8435 21.3204 21.8435 21.0751C21.8435 20.8299 21.7517 20.5935 21.5861 20.4127Z" fill="white"/>
</svg>
