<svg width="187" height="151" viewBox="0 0 187 151" fill="none" xmlns="http://www.w3.org/2000/svg">
<path d="M80.7002 2.57987L89.6832 19.8674H182.144C183.419 19.8674 184.643 20.3746 185.545 21.2774C186.447 22.1801 186.954 23.4046 186.954 24.6813V146.199C186.95 147.474 186.442 148.695 185.54 149.595C184.639 150.495 183.417 151 182.144 151H4.81038C3.53689 151 2.31535 150.495 1.41361 149.595C0.511871 148.695 0.00351794 147.474 0 146.199V4.80067C0.00351794 3.52625 0.511871 2.30524 1.41361 1.40533C2.31535 0.505417 3.53689 2.82824e-05 4.81038 3.3145e-05H76.4214C77.3023 -0.0032376 78.1671 0.235619 78.9217 0.690546C79.6762 1.14547 80.2914 1.79901 80.7002 2.57987Z" fill="#FF6F06"/>
</svg>
