<svg width="39" height="50" viewBox="0 0 39 50" fill="none" xmlns="http://www.w3.org/2000/svg">
<path d="M19.4864 0C24.658 0 29.6178 2.05592 33.2747 5.71549C36.9316 9.37507 38.986 14.3385 38.986 19.514V35.4872C38.9864 35.879 38.9597 36.2704 38.9062 36.6585C38.6174 38.5658 37.6374 40.2999 36.1529 41.5304L28.2519 48.1859C27.0759 49.1641 25.64 49.7772 24.1205 49.9499C22.6011 50.1225 21.0644 49.8471 19.6992 49.1576L4.30962 41.4372C3.01371 40.7771 1.92537 39.7713 1.16484 38.531C0.404306 37.2907 0.0011746 35.8642 4.54015e-06 34.409V19.514C-0.00174297 16.952 0.500992 14.4147 1.47949 12.0473C2.45799 9.67982 3.89308 7.52852 5.70273 5.71631C7.51238 3.9041 9.66113 2.4665 12.0262 1.48567C14.3912 0.504837 16.9263 -5.96857e-07 19.4864 0Z" fill="#D28A7B"/>
</svg>
