<svg width="15" height="15" viewBox="0 0 15 15" fill="none" xmlns="http://www.w3.org/2000/svg">
<path d="M0.153464 9.00997C0.451788 10.4625 1.17367 11.7938 2.22788 12.8359C3.28209 13.8779 4.62129 14.5839 6.07629 14.8645C7.53128 15.1451 9.03674 14.9878 10.4024 14.4124C11.7681 13.8371 12.9327 12.8695 13.7491 11.632C14.5654 10.3944 14.9969 8.94254 14.9889 7.45971C14.981 5.97688 14.5339 4.52968 13.7043 3.30101C12.8747 2.07235 11.6998 1.11735 10.328 0.55671C8.95626 -0.00393057 7.44921 -0.145046 5.99731 0.151187C5.03198 0.348146 4.11491 0.733635 3.29859 1.28562C2.48227 1.83759 1.78273 2.54523 1.23996 3.36803C0.697185 4.19083 0.321838 5.11265 0.135407 6.08075C-0.0510249 7.04885 -0.0448851 8.04424 0.153464 9.00997Z" fill="#D28A7B"/>
</svg>
