<svg width="236" height="147" viewBox="0 0 236 147" fill="none" xmlns="http://www.w3.org/2000/svg">
<path d="M119.062 3.44161L124.234 22.8999L232.168 23.3896C235.277 23.3896 236.798 25.7723 235.581 28.6844L187.685 142.8C187.061 143.965 186.135 144.941 185.004 145.623C183.872 146.306 182.578 146.67 181.257 146.678L4.21016 145.871C1.56472 145.871 -0.313563 144.11 0.0435721 141.9L17.9268 32.2054L19.5273 22.3968L22.2785 5.51977C22.5907 3.98485 23.4156 2.60199 24.6177 1.59875C25.8197 0.595504 27.3272 0.0316767 28.8921 0L114.71 0.383842C115.676 0.316543 116.636 0.583677 117.428 1.14042C118.22 1.69715 118.797 2.50967 119.062 3.44161Z" fill="#FF9E57"/>
</svg>
