<svg width="16" height="16" viewBox="0 0 16 16" fill="none" xmlns="http://www.w3.org/2000/svg">
<path d="M15.9883 7.98639C15.991 9.56922 15.5244 11.1173 14.6476 12.4347C13.7709 13.752 12.5233 14.7795 11.0628 15.3871C9.60229 15.9947 7.99452 16.1551 6.44291 15.8479C4.8913 15.5408 3.4656 14.7799 2.34624 13.6617C1.22688 12.5434 0.464165 11.1179 0.154605 9.56573C-0.154954 8.01351 0.00256485 6.40428 0.607221 4.94168C1.21188 3.47908 2.2365 2.22884 3.55142 1.34919C4.86635 0.469534 6.41247 2.28903e-06 7.99414 0C10.112 -3.06495e-06 12.1432 0.840982 13.642 2.33833C15.1409 3.83568 15.9847 5.86702 15.9883 7.98639Z" fill="#585858"/>
</svg>
