<svg width="4" height="4" viewBox="0 0 4 4" fill="none" xmlns="http://www.w3.org/2000/svg">
<path d="M0.515929 1.95369C0.463207 2.13006 0.453372 2.31647 0.487245 2.49742C0.521117 2.67837 0.597713 2.8486 0.710653 2.99392C0.823594 3.13923 0.96961 3.25544 1.13652 3.33284C1.30344 3.41023 1.48641 3.44657 1.67021 3.43885C2.09121 3.41694 2.49421 3.26107 2.82049 2.99392C3.14677 2.72677 3.37926 2.36231 3.48409 1.95369C3.53681 1.77731 3.54664 1.5909 3.51277 1.40995C3.4789 1.229 3.4023 1.05877 3.28936 0.913455C3.17642 0.768139 3.03041 0.651929 2.86349 0.574533C2.69658 0.497138 2.5136 0.460804 2.32981 0.468526C1.90804 0.487854 1.50374 0.642777 1.17697 0.910332C0.850198 1.17789 0.618378 1.54379 0.515929 1.95369Z" stroke="#121D30" stroke-width="0.75" stroke-miterlimit="10"/>
</svg>
