<svg width="4" height="4" viewBox="0 0 4 4" fill="none" xmlns="http://www.w3.org/2000/svg">
<path d="M0.52111 1.95072C0.465046 2.12559 0.452149 2.31147 0.483525 2.49242C0.514902 2.67337 0.589621 2.84402 0.701281 2.98977C0.81294 3.13552 0.958223 3.25203 1.12469 3.32933C1.29117 3.40663 1.47387 3.4424 1.65718 3.43362C2.08042 3.41518 2.48653 3.2611 2.8156 2.99409C3.14467 2.72709 3.37926 2.36131 3.48477 1.95072C3.53741 1.77461 3.54723 1.58848 3.51341 1.40781C3.47959 1.22714 3.40311 1.05716 3.29034 0.912067C3.17757 0.766971 3.03178 0.650938 2.86512 0.57366C2.69846 0.496383 2.51575 0.460103 2.33223 0.467814C1.91033 0.484473 1.50533 0.638214 1.17855 0.905781C0.851759 1.17335 0.620971 1.54017 0.52111 1.95072Z" stroke="#121D30" stroke-width="0.75" stroke-miterlimit="10"/>
</svg>
