<svg width="4" height="4" viewBox="0 0 4 4" fill="none" xmlns="http://www.w3.org/2000/svg">
<path d="M0.479204 2.00002C0.474723 2.19675 0.509295 2.39243 0.580919 2.57569C0.652543 2.75894 0.759784 2.92616 0.896448 3.06764C1.03311 3.20912 1.19647 3.32206 1.37706 3.3999C1.55765 3.47775 1.75189 3.51893 1.94851 3.52111C2.35518 3.51715 2.74482 3.35716 3.03707 3.07414C3.32932 2.79111 3.50189 2.40664 3.51918 2.00002C3.5284 1.8021 3.49709 1.60436 3.42718 1.419C3.35726 1.23363 3.25021 1.06455 3.1126 0.922094C2.975 0.779638 2.80972 0.666812 2.62696 0.590602C2.44421 0.514393 2.24781 0.476417 2.04984 0.478936C1.64317 0.482898 1.25353 0.642885 0.961286 0.925911C0.66904 1.20894 0.496491 1.59341 0.479204 2.00002Z" stroke="#121D30" stroke-width="0.75" stroke-miterlimit="10"/>
</svg>
