<svg width="11" height="11" viewBox="0 0 11 11" fill="none" xmlns="http://www.w3.org/2000/svg">
<path d="M10.9919 5.49999C10.9919 6.58779 10.6696 7.65117 10.0657 8.55564C9.46179 9.46011 8.60343 10.1651 7.59917 10.5813C6.59491 10.9976 5.48987 11.1065 4.42376 10.8943C3.35764 10.6821 2.37835 10.1583 1.60972 9.38908C0.841098 8.61989 0.317664 7.63989 0.105601 6.57299C-0.106462 5.5061 0.0023948 4.40024 0.418372 3.39524C0.834349 2.39025 1.53876 1.53126 2.44257 0.926913C3.34637 0.322566 4.40899 0 5.49599 0C6.21773 0 6.93237 0.142263 7.59917 0.418664C8.26597 0.695064 8.87187 1.10019 9.38222 1.61091C9.89257 2.12163 10.2974 2.72795 10.5736 3.39524C10.8498 4.06253 10.9919 4.77772 10.9919 5.49999Z" fill="#585858"/>
</svg>
