<svg width="32" height="37" viewBox="0 0 32 37" fill="none" xmlns="http://www.w3.org/2000/svg">
<path d="M2.46666 5.53045C7.34606 11.7758 13.0881 15.2559 18.7358 15.2559C23.8983 15.2559 28.1711 12.3153 30.6243 7.25702C30.2873 15.9573 29.0203 30.0397 24.5048 34.6394C24.1418 35.0533 23.6967 35.387 23.1977 35.6192C22.6988 35.8515 22.157 35.9772 21.6068 35.9883C21.1482 35.9836 20.6933 35.9062 20.2589 35.759C11.5111 32.9803 5.24333 14.9727 2.50709 5.53045M0 0C0 0 7.38649 32.724 19.9624 36.7302C20.5065 36.9075 21.075 36.9986 21.6473 37C32.4305 37 31.797 0.107913 31.797 0.107913C30.4491 9.23988 25.1383 14.2442 18.7762 14.2442C12.7376 14.2442 5.70162 9.73897 0 0Z" fill="white"/>
</svg>
