<svg width="41" height="63" viewBox="0 0 41 63" fill="none" xmlns="http://www.w3.org/2000/svg">
<path d="M35.8359 61.928C38.0819 60.7664 39.7758 58.7608 40.5461 56.351C41.3164 53.9413 41.1001 51.3242 39.9446 49.0738L18.0181 5.16199C16.8577 2.91407 14.8526 1.21946 12.4438 0.450871C10.035 -0.317717 7.41977 -0.097332 5.17332 1.06355C4.0587 1.63604 3.06795 2.42307 2.25787 3.3795C1.4478 4.33593 0.834329 5.44295 0.452623 6.63712C0.070918 7.83128 -0.0715106 9.0891 0.033505 10.3385C0.138521 11.5878 0.488909 12.8042 1.06459 13.9177L22.539 56.0598C23.3907 57.7485 24.6299 59.2114 26.1553 60.3285C27.6807 61.4456 29.4489 62.1853 31.315 62.4869C32.8433 62.7769 34.424 62.5814 35.8359 61.928Z" fill="#D28A7B"/>
</svg>
